<?xml version="1.0" encoding="UTF-8" standalone="no"?>
<svg width="202px" height="52px" viewBox="0 0 202 52" version="1.1" xmlns="http://www.w3.org/2000/svg" xmlns:xlink="http://www.w3.org/1999/xlink" xmlns:sketch="http://www.bohemiancoding.com/sketch/ns">
    <!-- Generator: Sketch 3.3.1 (12002) - http://www.bohemiancoding.com/sketch -->
    <title>dash_logo</title>
    <desc>Created with Sketch.</desc>
    <defs></defs>
    <g id="Page-1" stroke="none" stroke-width="1" fill="none" fill-rule="evenodd" sketch:type="MSPage">
        <g id="iPad-Landscape" sketch:type="MSArtboardGroup" transform="translate(-111.000000, -17.000000)">
            <g id="dash_logo" sketch:type="MSLayerGroup" transform="translate(111.000000, 17.000000)">
                <path d="M10.92,35.936 C11.284,36.048 11.312,36.272 11.312,36.692 L11.312,38.344 L14.84,38.12 L14.84,33.192 C13.44,32.492 11.2,32.016 9.016,32.016 C4.536,32.016 0,34.48 0,41.844 C0,48.088 3.332,51.364 9.128,51.364 C11.368,51.364 13.412,51 14.924,50.216 L14.924,45.092 L11.396,44.868 L11.396,46.688 C11.396,47.136 11.284,47.36 10.92,47.444 C10.5,47.584 9.912,47.612 9.408,47.612 C6.132,47.612 4.928,44.952 4.928,41.536 C4.928,37.644 6.496,35.74 9.296,35.74 C9.744,35.74 10.388,35.796 10.92,35.936 L10.92,35.936 Z M16.52,43.944 C16.52,49.068 18.9,51.364 23.1,51.364 C27.328,51.364 30.156,48.956 30.156,43.496 C30.156,36.916 25.732,36.3 23.52,36.3 C20.468,36.3 16.52,37.924 16.52,43.944 L16.52,43.944 Z M23.324,47.948 C21.588,47.948 21.336,45.932 21.336,43.412 C21.336,41.004 21.868,39.688 23.324,39.688 C24.864,39.688 25.312,40.976 25.312,43.916 C25.312,46.604 24.752,47.948 23.324,47.948 L23.324,47.948 Z M48.496,47.584 C48.496,48.172 48.384,48.34 48.02,48.368 L47.46,48.424 L47.46,51 L54.544,51 L54.544,48.424 L53.172,48.312 L53.172,41.088 C53.172,37.868 51.744,36.3 49.084,36.3 C47.124,36.3 45.78,37.224 45.024,38.568 C44.212,36.692 42.588,36.3 41.412,36.3 C39.116,36.3 37.94,37.42 37.296,38.54 L37.24,38.54 L37.24,36.692 L31.388,36.692 L31.388,39.324 L32.34,39.408 C32.844,39.464 33.012,39.66 33.012,40.248 L33.012,47.5 C33.012,48.172 32.9,48.34 32.368,48.396 L31.416,48.48 L31.416,51 L38.836,51 L38.836,48.424 L37.632,48.284 L37.632,42.152 C37.632,40.892 38.304,39.968 39.34,39.968 C40.544,39.968 40.74,40.752 40.74,42.012 L40.74,47.584 C40.74,48.172 40.628,48.34 40.264,48.368 L39.704,48.424 L39.704,51 L46.48,51 L46.48,48.424 L45.416,48.312 L45.416,42.124 C45.416,40.864 46.088,39.968 47.096,39.968 C48.272,39.968 48.496,40.696 48.496,41.984 L48.496,47.584 Z M72.576,47.584 C72.576,48.172 72.464,48.34 72.1,48.368 L71.54,48.424 L71.54,51 L78.624,51 L78.624,48.424 L77.252,48.312 L77.252,41.088 C77.252,37.868 75.824,36.3 73.164,36.3 C71.204,36.3 69.86,37.224 69.104,38.568 C68.292,36.692 66.668,36.3 65.492,36.3 C63.196,36.3 62.02,37.42 61.376,38.54 L61.32,38.54 L61.32,36.692 L55.468,36.692 L55.468,39.324 L56.42,39.408 C56.924,39.464 57.092,39.66 57.092,40.248 L57.092,47.5 C57.092,48.172 56.98,48.34 56.448,48.396 L55.496,48.48 L55.496,51 L62.916,51 L62.916,48.424 L61.712,48.284 L61.712,42.152 C61.712,40.892 62.384,39.968 63.42,39.968 C64.624,39.968 64.82,40.752 64.82,42.012 L64.82,47.584 C64.82,48.172 64.708,48.34 64.344,48.368 L63.784,48.424 L63.784,51 L70.56,51 L70.56,48.424 L69.496,48.312 L69.496,42.124 C69.496,40.864 70.168,39.968 71.176,39.968 C72.352,39.968 72.576,40.696 72.576,41.984 L72.576,47.584 Z M93.66,36.692 L87.752,36.692 L87.752,39.352 L88.368,39.408 C88.872,39.464 89.04,39.66 89.04,40.248 L89.04,45.484 C89.04,46.828 88.284,47.724 87.136,47.724 C85.932,47.724 85.652,47.052 85.652,45.708 L85.652,36.692 L79.548,36.692 L79.548,39.352 L80.304,39.408 C80.752,39.464 80.976,39.632 80.976,40.22 L80.976,46.632 C80.976,49.852 82.376,51.364 85.232,51.364 C87.164,51.364 88.564,50.496 89.32,49.208 L89.404,49.208 L89.404,51 L95.032,51 L95.032,48.452 L94.276,48.368 C93.8,48.312 93.66,48.116 93.66,47.5 L93.66,36.692 Z M97.748,47.528 C97.748,48.172 97.636,48.368 97.104,48.396 L96.152,48.48 L96.152,51 L103.572,51 L103.572,48.396 L102.396,48.312 L102.396,42.18 C102.396,40.948 103.068,39.968 104.244,39.968 C105.476,39.968 105.756,40.696 105.756,42.012 L105.756,47.808 C105.728,48.228 105.588,48.34 105.28,48.368 L104.72,48.424 L104.72,51 L111.804,51 L111.804,48.424 L110.432,48.312 L110.432,41.06 C110.432,37.616 108.808,36.3 106.204,36.3 C104.02,36.3 102.732,37.42 102.06,38.512 L102.004,38.512 L102.004,36.692 L96.124,36.692 L96.124,39.324 L97.076,39.408 C97.58,39.464 97.748,39.66 97.748,40.248 L97.748,47.528 Z M119,36.692 L112.756,36.692 L112.756,39.324 L113.708,39.408 C114.212,39.464 114.38,39.66 114.38,40.248 L114.38,47.472 C114.38,48.172 114.268,48.34 113.736,48.396 L112.756,48.48 L112.756,51 L120.484,51 L120.484,48.396 L119,48.284 L119,36.692 Z M113.624,32.632 C113.624,34.032 114.66,35.068 116.312,35.068 C117.936,35.068 119.056,34.032 119.056,32.548 C119.056,31.12 117.936,30.168 116.312,30.168 C114.688,30.168 113.624,31.26 113.624,32.632 L113.624,32.632 Z M128.996,39.856 C129.276,39.856 129.584,39.884 129.836,39.94 C130.172,40.052 130.228,40.276 130.228,40.696 L130.228,42.068 L133.532,41.844 L133.532,37.364 C132.3,36.664 130.508,36.3 128.884,36.3 C125.16,36.3 121.688,38.456 121.688,44 C121.688,48.928 124.348,51.364 128.52,51.364 C130.76,51.364 132.664,50.58 133.952,49.572 L132.3,46.548 C131.18,47.332 130.2,47.724 129.192,47.724 C127.316,47.724 126.392,46.268 126.392,43.804 C126.392,41.2 127.344,39.856 128.996,39.856 L128.996,39.856 Z M148.092,37.364 C145.852,36.496 143.696,36.3 142.688,36.3 C137.508,36.3 134.96,39.548 134.96,44.476 C134.96,48.2 136.304,51.364 140.56,51.364 C142.184,51.364 143.444,50.72 144.144,49.656 L144.228,49.684 L144.424,51 L149.464,51 L149.464,48.452 L148.736,48.396 C148.232,48.368 148.092,48.172 148.092,47.584 L148.092,37.364 Z M143.472,46.38 C143.472,47.248 142.856,48.032 141.708,48.032 C140.028,48.032 139.636,46.268 139.636,44.14 C139.636,41.788 140.168,39.632 142.184,39.632 C142.688,39.632 143.164,39.716 143.472,39.856 L143.472,46.38 Z M150.164,39.772 L152.04,39.772 L152.04,46.268 C152.04,48.844 152.096,51.364 156.968,51.364 C158.536,51.364 159.936,50.972 160.72,50.496 L160.076,47.36 C159.628,47.612 159.012,47.78 158.34,47.78 C157.024,47.78 156.744,47.332 156.744,45.792 L156.744,39.772 L159.796,39.772 L160.02,36.692 L156.744,36.692 L156.744,33.416 L154.168,33.416 C153.58,35.152 152.6,36.58 150.528,37.056 L150.164,39.772 Z M168.028,36.692 L161.784,36.692 L161.784,39.324 L162.736,39.408 C163.24,39.464 163.408,39.66 163.408,40.248 L163.408,47.472 C163.408,48.172 163.296,48.34 162.764,48.396 L161.784,48.48 L161.784,51 L169.512,51 L169.512,48.396 L168.028,48.284 L168.028,36.692 Z M162.652,32.632 C162.652,34.032 163.688,35.068 165.34,35.068 C166.964,35.068 168.084,34.032 168.084,32.548 C168.084,31.12 166.964,30.168 165.34,30.168 C163.716,30.168 162.652,31.26 162.652,32.632 L162.652,32.632 Z M170.716,43.944 C170.716,49.068 173.096,51.364 177.296,51.364 C181.524,51.364 184.352,48.956 184.352,43.496 C184.352,36.916 179.928,36.3 177.716,36.3 C174.664,36.3 170.716,37.924 170.716,43.944 L170.716,43.944 Z M177.52,47.948 C175.784,47.948 175.532,45.932 175.532,43.412 C175.532,41.004 176.064,39.688 177.52,39.688 C179.06,39.688 179.508,40.976 179.508,43.916 C179.508,46.604 178.948,47.948 177.52,47.948 L177.52,47.948 Z M187.208,47.528 C187.208,48.172 187.096,48.368 186.564,48.396 L185.612,48.48 L185.612,51 L193.032,51 L193.032,48.396 L191.856,48.312 L191.856,42.18 C191.856,40.948 192.528,39.968 193.704,39.968 C194.936,39.968 195.216,40.696 195.216,42.012 L195.216,47.808 C195.188,48.228 195.048,48.34 194.74,48.368 L194.18,48.424 L194.18,51 L201.264,51 L201.264,48.424 L199.892,48.312 L199.892,41.06 C199.892,37.616 198.268,36.3 195.664,36.3 C193.48,36.3 192.192,37.42 191.52,38.512 L191.464,38.512 L191.464,36.692 L185.584,36.692 L185.584,39.324 L186.536,39.408 C187.04,39.464 187.208,39.66 187.208,40.248 L187.208,47.528 Z" id="Communication" fill="#434343" sketch:type="MSShapeGroup"></path>
                <path d="M0,20 L8.148,20 C12.824,20 17.164,17.34 17.164,10.06 C17.164,4.124 13.608,1.38 8.036,1.38 L0.028,1.38 L0.028,4.124 L1.512,4.236 L1.512,16.5 C1.512,17.06 1.316,17.2 0.84,17.256 L0,17.34 L0,20 Z M6.328,4.684 L7.896,4.684 C10.248,4.684 12.32,5.58 12.32,10.508 C12.32,14.932 10.724,16.612 7.896,16.612 L6.328,16.612 L6.328,4.684 Z M32.032,6.364 C29.792,5.496 27.636,5.3 26.628,5.3 C21.448,5.3 18.9,8.548 18.9,13.476 C18.9,17.2 20.244,20.364 24.5,20.364 C26.124,20.364 27.384,19.72 28.084,18.656 L28.168,18.684 L28.364,20 L33.404,20 L33.404,17.452 L32.676,17.396 C32.172,17.368 32.032,17.172 32.032,16.584 L32.032,6.364 Z M27.412,15.38 C27.412,16.248 26.796,17.032 25.648,17.032 C23.968,17.032 23.576,15.268 23.576,13.14 C23.576,10.788 24.108,8.632 26.124,8.632 C26.628,8.632 27.104,8.716 27.412,8.856 L27.412,15.38 Z M42.364,8.548 C42.672,8.66 42.728,8.856 42.728,9.276 L42.728,10.284 L45.864,10.06 L45.864,6.308 C44.436,5.608 42.7,5.3 41.216,5.3 C37.576,5.3 35,7.036 35,10.144 C35,13.196 37.128,13.924 39.088,14.428 C40.544,14.764 41.636,14.988 41.636,15.968 C41.636,16.92 40.936,17.284 39.844,17.284 C39.284,17.284 38.78,17.2 38.472,17.088 C38.136,16.976 38.08,16.752 38.08,16.388 L38.08,15.324 L34.944,15.548 L34.944,19.412 C36.288,20.056 38.5,20.364 40.096,20.364 C43.904,20.364 46.368,18.544 46.368,15.436 C46.368,12.524 44.1,11.824 42.14,11.264 C40.74,10.844 39.564,10.564 39.564,9.556 C39.564,8.828 40.18,8.38 41.188,8.38 C41.608,8.38 41.972,8.408 42.364,8.548 L42.364,8.548 Z M57.12,16.584 C57.12,17.172 57.008,17.34 56.644,17.368 L56.084,17.424 L56.084,20 L63.168,20 L63.168,17.424 L61.796,17.312 L61.796,10.06 C61.796,6.98 60.536,5.3 57.54,5.3 C56,5.3 54.544,5.944 53.676,7.512 L53.676,0.036 L47.488,0.036 L47.488,2.668 L48.44,2.78 C48.944,2.836 49.112,3.004 49.112,3.592 L49.112,16.472 C49.112,17.172 48.972,17.368 48.44,17.396 L47.516,17.48 L47.516,20 L54.936,20 L54.936,17.368 L53.76,17.312 L53.76,11.18 C53.76,9.892 54.46,8.968 55.608,8.968 C56.84,8.968 57.12,9.696 57.12,10.984 L57.12,16.584 Z" id="Dash-Copy" fill="#DA611E" sketch:type="MSShapeGroup"></path>
            </g>
        </g>
    </g>
</svg>