<?xml version="1.0" encoding="UTF-8" standalone="no"?>
<svg width="2880px" height="1800px" viewBox="0 0 2880 1800" version="1.1" xmlns="http://www.w3.org/2000/svg" xmlns:xlink="http://www.w3.org/1999/xlink" xmlns:sketch="http://www.bohemiancoding.com/sketch/ns">
    <!-- Generator: Sketch 3.3.2 (12043) - http://www.bohemiancoding.com/sketch -->
    <title>green</title>
    <desc>Created with Sketch.</desc>
    <defs></defs>
    <g id="Page-1" stroke="none" stroke-width="1" fill="none" fill-rule="evenodd" sketch:type="MSPage">
        <g id="green" sketch:type="MSArtboardGroup">
            <g id="Imported-Layers" sketch:type="MSLayerGroup">
                <path d="M0,0 L2932.93893,0 L2932.93893,1832.99367 L0,1832.99367 L0,0 Z" id="Fill-1" fill="#1D7FB2" sketch:type="MSShapeGroup"></path>
                <path d="M1785.31145,1388.49071 L1622.49102,1564.5715 L1528.15713,1832.47294 L2044.84454,1832.47294 L1925.30762,1579.48631 L1785.31145,1388.49071" id="Fill-2" fill="#187399" sketch:type="MSShapeGroup"></path>
                <path d="M2065.66564,904.84765 L2172.64914,774.219817 L2230.75491,618.853599 L2191.87625,486.368859 L2069.6842,339.737429 L1942.10099,479.787227 L1904.49416,625.900984 L1974.16398,780.32806 L2044.33001,867.888198 L2065.66564,904.84765" id="Fill-3" fill="#348CC0" sketch:type="MSShapeGroup"></path>
                <path d="M1193.67298,925.992861 L1150.45055,826.903414 L1099.16809,762.278201 L1046.62754,812.904848 L913.335589,1084.37655 L954.255596,1173.73709 L1006.81447,1246.31066 L1125.25973,1130.02498 L1193.67298,925.992861" id="Fill-4" fill="#348CC0" sketch:type="MSShapeGroup"></path>
                <path d="M1201.09022,1092.3585 L1088.64379,1108.32697 L1152.74076,1246.31066 L1275.82752,1432.59833 L1336.72124,1352.97585 L1381.51934,1249.50221 L1302.17413,1108.32697 L1201.09022,1092.3585" id="Fill-5" fill="#25AAC3" sketch:type="MSShapeGroup"></path>
                <path d="M1139.02238,1475.33771 L1251.15581,1475.33771 L1275.82752,1432.59833 L1088.53081,1108.13151 L1006.81447,1246.31066 L1027.54243,1381.99001 L1058.84201,1422.45712 L1139.02238,1475.33771" id="Fill-6" fill="#1D7FB2" sketch:type="MSShapeGroup"></path>
                <path d="M1302.17413,1108.32697 L1196.46093,921.156659 L1088.53081,1108.12693 L1088.64685,1108.32697 L1302.17413,1108.32697" id="Fill-7" fill="#267FB1" sketch:type="MSShapeGroup"></path>
                <path d="M1544.88943,1248.76923 L1516.12129,1182.9636 L1463.41737,1107.62911 L1410.77147,1169.72856 L1381.51934,1249.50221 L1415.86033,1331.08849 L1463.26469,1391.11725 L1520.19329,1325.99727 L1544.88943,1248.76923" id="Fill-8" fill="#1D7FB2" sketch:type="MSShapeGroup"></path>
                <path d="M1463.41737,1107.62911 L1544.88943,1248.76923 L1594.49698,1198.23115 L1625.51257,1109.09967 L1602.64097,1030.25599 L1544.03899,969.233114 L1487.36842,1026.94838 L1463.41737,1107.62911" id="Fill-9" fill="#1F94B8" sketch:type="MSShapeGroup"></path>
                <path d="M1544.03899,969.233114 L1455.17566,961.921547 L1382.01403,968.228308 L1463.36088,1107.75738 L1510.88434,1025.58777 L1544.03899,969.233114" id="Fill-10" fill="#40B5A6" sketch:type="MSShapeGroup"></path>
                <path d="M827.562516,0 L659.641014,0 L740.12064,165.30433 L847.951523,330.735405 L852.188417,334.430893 L852.281553,334.594288 L904.889282,280.470673 L936.944636,189.500608 L891.656429,97.3501249 L827.562516,0" id="Fill-11" fill="#2B9ECD" sketch:type="MSShapeGroup"></path>
                <path d="M852.281553,334.594288 L615.655174,744.165734 L862.538655,1173.73709 L1098.83372,763.107396 L1013.03774,548.214821 L852.281553,334.594288" id="Fill-12" fill="#366DA8" sketch:type="MSShapeGroup"></path>
                <path d="M0,0 L0,223.146338 L171.677452,519.21441 L471.380889,0 L0,0" id="Fill-13" fill="#167E73" sketch:type="MSShapeGroup"></path>
                <path d="M1.52680895,1440.452 L1.52680895,1832.73254 L481.309728,1832.73254 L625.991671,1673.15011 L707.75229,1440.452 L1.52680895,1440.452" id="Fill-14" fill="#15775F" sketch:type="MSShapeGroup"></path>
                <path d="M615.988019,743.33654 L460.868809,1013.60797 L518.606617,1205.86951 L707.750764,1440.34664 L819.896408,1342.66819 L862.538655,1172.44825 L615.988019,743.33654" id="Fill-15" fill="#2868A4" sketch:type="MSShapeGroup"></path>
                <path d="M2021.20801,1793.19846 L2193.45191,1494.43055 L2059.92331,1262.53262 L1957.00417,1440.82308 L1887.58169,1563.73162 L1914.8047,1609.44724 L2021.20801,1793.19846" id="Fill-16" fill="#243C73" sketch:type="MSShapeGroup"></path>
                <path d="M1343.22239,1829.06912 L913.433305,1084.52315 L913.334062,1084.35365 L481.485311,1832.46989 L1345.18587,1832.46989 L1343.22239,1829.06912" id="Fill-17" fill="#249482" sketch:type="MSShapeGroup"></path>
                <path d="M2192.54499,1492.51256 L2192.43353,1492.3171 L1996.07979,1832.47752 L1995.93169,1832.73254 L2388.93537,1832.73254 L2192.54499,1492.51256" id="Fill-18" fill="#19363A" sketch:type="MSShapeGroup"></path>
                <path d="M2331.18688,790.63572 L2059.53245,1172.27417 L2059.53245,1264.43687 L2192.43353,1494.54202 L2464.8422,1023.60869 L2428.64462,867.39343 L2331.18688,790.63572" id="Fill-19" fill="#1A4386" sketch:type="MSShapeGroup"></path>
                <path d="M1834.46096,968.100035 L1629.61358,994.113515 L1544.03899,969.233114 L1544.03899,967.965654 L1716.25236,669.636005 L1893.07973,954.894013 L1834.46096,968.100035" id="Fill-20" fill="#0BAC88" sketch:type="MSShapeGroup"></path>
                <path d="M1947.04938,1109.07829 L2072.0706,904.84765 L1904.3827,625.707047 L1625.35226,1109.07829 L1947.04938,1109.07829" id="Fill-21" fill="#0C987D" sketch:type="MSShapeGroup"></path>
                <path d="M1066.7295,73.8089559 L985.220808,0 L827.562516,0 L936.944636,189.500608 L976.012624,293.577435 L1033.56569,358.443923 L1080.59904,296.249792 L1112.88799,221.028305 L1066.7295,73.8089559" id="Fill-22" fill="#00A475" sketch:type="MSShapeGroup"></path>
                <path d="M1359.77453,648.721381 L1164.95523,270.289759 L1112.88799,221.028305 L1032.26332,360.700919 L1279.15138,788.387887 L1359.77453,648.721381" id="Fill-23" fill="#17A495" sketch:type="MSShapeGroup"></path>
                <path d="M1301.98634,841.983139 L1382.01403,968.228308 L1544.03899,969.233114 L1416.87871,663.50791 L1262.23892,479.787227 L1181.55928,619.548411 L1301.98634,841.983139" id="Fill-24" fill="#22A8B9" sketch:type="MSShapeGroup"></path>
                <path d="M1544.11839,968.100035 L1544.03899,967.965654 L1543.96113,968.100035 L1544.11839,968.100035" id="Fill-25" fill="#00A475" sketch:type="MSShapeGroup"></path>
                <path d="M1503.16937,898.430941 L1544.03899,969.233114 L1716.25236,669.636005 L1703.15539,575.701915 L1630.24568,523.922338 L1526.42725,643.274355 L1459.84311,822.108443 L1503.16937,898.430941" id="Fill-26" fill="#0C987D" sketch:type="MSShapeGroup"></path>
                <path d="M1797.99771,810.386724 L2069.90711,339.351082 L1988.16176,197.740628 L1718.55936,652.436719 L1716.25236,669.636005 L1797.99771,810.386724" id="Fill-27" fill="#148681" sketch:type="MSShapeGroup"></path>
                <path d="M1806.43943,1701.87412 L1806.76617,1702.43761" id="Fill-32" fill="#187399" sketch:type="MSShapeGroup"></path>
                <path d="M1887.3939,1562.76346 L1887.06716,1562.19845" id="Fill-33" fill="#187399" sketch:type="MSShapeGroup"></path>
                <path d="M1887.06716,1562.19845 L1887.49772,1561.45172 L1787.06728,1387.4691 L1786.63519,1388.21736 L1887.06716,1562.19845" id="Fill-34" fill="#187399" sketch:type="MSShapeGroup"></path>
                <path d="M1887.82446,1562.01979 L1887.49772,1561.45172 L1887.06716,1562.19845 L1887.3939,1562.76346 L1887.82446,1562.01979" id="Fill-35" fill="#187399" sketch:type="MSShapeGroup"></path>
                <path d="M1705.95708,1527.98007 L1706.00899,1527.88998 L1705.49446,1526.99512 L1705.44255,1527.08827 L1705.95708,1527.98007" id="Fill-36" fill="#187399" sketch:type="MSShapeGroup"></path>
                <path d="M1344.29879,1830.94893 L1195.08986,1572.46641 L1044.85186,1832.73254 L1345.32786,1832.73254 L1344.29879,1830.94893" id="Fill-37" fill="#2DAF86" sketch:type="MSShapeGroup"></path>
                <path d="M1463.26469,1391.11725 L1381.51934,1249.50221 L1275.82752,1432.59833 L1295.30655,1524.57931 L1358.66912,1578.58381 L1427.18467,1482.77602 L1463.26469,1391.11725" id="Fill-38" fill="#316BA6" sketch:type="MSShapeGroup"></path>
                <path d="M1357.5744,1574.21489 L1275.82752,1432.59833 L1242.82249,1470.68628 L1195.08986,1572.46641 L1344.29879,1830.94893 L1505.77411,1830.94893 L1357.5744,1574.21489" id="Fill-39" fill="#2CAAC5" sketch:type="MSShapeGroup"></path>
                <path d="M1625.69579,1108.78356 L1706.90523,969.233114 L1544.03899,969.233114 L1625.51257,1109.09967 L1625.69579,1108.78356" id="Fill-40" fill="#148681" sketch:type="MSShapeGroup"></path>
                <path d="M1434.72711,181.944711 L1434.44923,181.465214 L1426.577,195.101867 L1426.85335,195.582891 L1434.72711,181.944711" id="Fill-41" fill="#187399" sketch:type="MSShapeGroup"></path>
                <path d="M2650.17849,701.572954 L2416.59199,296.91559 L2302.17293,430.884633 L2230.75491,618.853599 L2265.40279,737.952123 L2331.59759,793.24394 L2464.546,1023.14905 L2650.17849,701.572954" id="Fill-42" fill="#2D66A3" sketch:type="MSShapeGroup"></path>
                <path d="M2661.62498,1365.26411 L2661.8311,1364.90983 L2464.65899,1023.34604 L2464.45287,1023.70032 L2661.62498,1365.26411" id="Fill-43" fill="#0E9375" sketch:type="MSShapeGroup"></path>
                <path d="M2536.97171,897.682681 L2537.0847,897.879672 L2650.28995,701.766891 L2650.17849,701.572954 L2536.97171,897.682681" id="Fill-44" fill="#0E9375" sketch:type="MSShapeGroup"></path>
                <path d="M2536.14266,899.121172 L2536.25564,899.315109 L2537.0847,897.879672 L2536.97171,897.682681 L2536.14266,899.121172" id="Fill-45" fill="#0E9375" sketch:type="MSShapeGroup"></path>
                <path d="M2070.10865,339.861121 L1988.3633,198.252193 L1988.16176,198.598836 L2069.90711,340.210818 L2070.10865,339.861121" id="Fill-46" fill="#0E9375" sketch:type="MSShapeGroup"></path>
                <path d="M2650.17849,701.572954 L2650.21513,701.508818 L2517.0606,470.843232 L2517.02701,470.904315 L2650.17849,701.572954" id="Fill-47" fill="#0E9375" sketch:type="MSShapeGroup"></path>
                <path d="M2842.21136,369.289109 L2842.10296,369.099754 L2650.21513,701.508818 L2650.32659,701.702754 L2842.21136,369.289109" id="Fill-48" fill="#0E9375" sketch:type="MSShapeGroup"></path>
                <path d="M2650.28995,701.766891 L2650.32659,701.702754 L2650.21513,701.508818 L2650.17849,701.572954 L2650.28995,701.766891" id="Fill-49" fill="#0E9375" sketch:type="MSShapeGroup"></path>
                <path d="M1088.41783,1108.32697 L1088.64379,1108.32697 L1088.53081,1108.13151 L1088.41783,1108.32697" id="Fill-50" fill="#2B9ECD" sketch:type="MSShapeGroup"></path>
                <path d="M1947.20969,1109.19892 L1904.54149,1109.19892 L1625.51257,1109.1974 L1625.51257,1109.19892 L1658.11452,1247.22689 L1785.39084,1388.6312 L1892.098,1242.26395 L1947.20969,1109.19892" id="Fill-51" fill="#187399" sketch:type="MSShapeGroup"></path>
                <path d="M1625.78587,1109.57305 L1625.78587,1109.57305 L1704.72342,972.827815 L1625.78587,1109.57305" id="Fill-52" fill="#1C4086" sketch:type="MSShapeGroup"></path>
                <path d="M0,1443.14574 L706.1354,1443.14574 L707.750764,1440.34664 L0,216.990756 L0,1443.14574" id="Fill-53" fill="#176B65" sketch:type="MSShapeGroup"></path>
                <path d="M1426.56631,195.101867 L1426.73731,194.807144 L1421.59808,186.496879 L1426.56631,195.101867" id="Fill-54" fill="#1E3E44" sketch:type="MSShapeGroup"></path>
                <path d="M1382.01403,968.228308 L1181.50431,619.676684 L1119.096,663.634656 L1098.83372,763.107396 L1381.46438,1249.63049 L1463.36088,1107.75738 L1382.01403,968.228308" id="Fill-55" fill="#2B9ECD" sketch:type="MSShapeGroup"></path>
                <path d="M1903.4147,52.4148343 L1771.09839,188.523289 L1630.24568,523.922338 L1716.25236,669.636005 L1988.16176,198.598836 L1991.72228,108.421316 L1903.4147,52.4148343" id="Fill-56" fill="#00A475" sketch:type="MSShapeGroup"></path>
                <path d="M2414.60103,301.707507 L2405.04015,276.970649 L2245.50236,0 L1933.62262,0 L1909.78302,19.0882598 L1903.4147,52.4148343 L2065.83511,333.071808 L2069.93307,340.16806 L2069.90711,340.210818 L2230.75491,618.853599 L2303.94708,491.449391 L2414.60103,301.707507" id="Fill-57" fill="#268AA9" sketch:type="MSShapeGroup"></path>
                <path d="M986.749144,1.27204163 L986.016276,1.27204163 L1011.63766,45.6575903 L1012.00409,45.0223331 L986.749144,1.27204163" id="Fill-58" fill="#00A475" sketch:type="MSShapeGroup"></path>
                <path d="M458.615239,0 L167.761187,508.085191 L460.844381,1014.24934 L522.492346,905.905903 L852.281553,334.594288 L660.089895,0 L458.615239,0" id="Fill-59" fill="#30AF86" sketch:type="MSShapeGroup"></path>
                <path d="M1012.00409,45.020806 L986.749144,1.27204163 L1012.00409,45.0223331 L1012.00409,45.020806" id="Fill-60" fill="#1B80B0" sketch:type="MSShapeGroup"></path>
                <path d="M1873.06785,0 L1873.06785,36.1394205 L1903.37043,52.4927144 L1933.62262,0 L1873.06785,0" id="Fill-61" fill="#22A8B9" sketch:type="MSShapeGroup"></path>
                <path d="M1314.22218,0.481024147 L1314.6787,1.27204163 L1314.68786,1.27204163 L1314.23287,0.481024147 L1314.22218,0.481024147" id="Fill-62" fill="#0E9375" sketch:type="MSShapeGroup"></path>
                <path d="M1539.00968,1.27204163 L1539.02037,1.27204163 L1539.47689,0.481024147 L1539.46773,0.481024147 L1539.00968,1.27204163" id="Fill-63" fill="#0E9375" sketch:type="MSShapeGroup"></path>
                <path d="M1314.6787,1.27204163 L1313.9443,0 L1216.44381,0 L1216.16593,0.481024147 L1215.70941,1.27204163 L1112.42384,220.693878 L1264.20239,483.604879 L1388.63274,319.155704 L1426.73579,199.093604 L1402.37402,92.3871774 L1314.6787,1.27204163" id="Fill-64" fill="#0E9375" sketch:type="MSShapeGroup"></path>
                <path d="M1313.95499,0 L1313.9443,0 L1314.22218,0.481024147 L1314.23287,0.481024147 L1313.95499,0" id="Fill-65" fill="#0E9375" sketch:type="MSShapeGroup"></path>
                <path d="M1539.74713,0 L1539.46773,0.481024147 L1539.47689,0.481024147 L1539.75477,0 L1539.74713,0" id="Fill-66" fill="#0E9375" sketch:type="MSShapeGroup"></path>
                <path d="M1460.56987,0 L1311.46935,0 L1312.22054,1.29952873 L1312.20832,1.29952873 L1421.48356,190.601619 L1426.73579,199.093604 L1541.47701,1.29952873 L1541.94574,0.491713572 L1542.23125,0 L1460.56987,0" id="Fill-67" fill="#1F3E43" sketch:type="MSShapeGroup"></path>
                <path d="M1873.52284,0 L1539.75477,0 L1539.02037,1.27204163 L1426.73579,199.093604 L1493.21916,387.873439 L1630.24568,523.922338 L1631.19077,522.283802 L1903.4147,52.4148343 L1873.52284,0" id="Fill-68" fill="#187399" sketch:type="MSShapeGroup"></path>
                <path d="M2818.5733,0 L2589.3092,0 L2469.61348,163.777269 L2414.53996,301.60214 L2512.0603,470.542401 L2512.09389,470.479792 L2647.80888,705.581489 L2868.87402,435.212323 L2933,212.237016 L2933,0 L2818.5733,0" id="Fill-69" fill="#335797" sketch:type="MSShapeGroup"></path>
                <path d="M2241.06392,0 L2414.60103,301.707507 L2589.3092,0 L2241.06392,0" id="Fill-70" fill="#2370A9" sketch:type="MSShapeGroup"></path>
                <path d="M1797.47096,809.187982 L1958.86077,1088.77143 L1947.0677,1109.1974 L1624.2896,1109.1974 L1797.47096,809.187982" id="Fill-71" fill="#40B5A6" sketch:type="MSShapeGroup"></path>
                <path d="M2230.74117,618.820003 L1785.229,1388.63272 L1887.62903,1563.68275 L2331.60217,793.24394 L2230.74117,618.820003" id="Fill-72" fill="#1F3E43" sketch:type="MSShapeGroup"></path>
                <path d="M1990.60313,1387.60654 L1785.229,1388.63272 L1888.44587,1564.5715 L1990.60313,1387.60654" id="Fill-73" fill="#1A4386" sketch:type="MSShapeGroup"></path>
                <path d="M1882.04701,772.41025 C1886.97097,772.41025 1886.97097,764.774946 1882.04701,764.774946 C1877.12305,764.774946 1877.12305,772.41025 1882.04701,772.41025" id="Fill-74" fill="#0C987D" sketch:type="MSShapeGroup"></path>
                <path d="M1195.08986,1572.46641 L1275.82752,1432.59833 L1114.27434,1432.44715 L1195.08986,1572.46641" id="Fill-75" fill="#187399" sketch:type="MSShapeGroup"></path>
                <path d="M1426.73579,199.093604 L1262.12135,479.991853 L1459.84311,822.108443 L1630.24568,523.922338 L1426.73579,199.093604" id="Fill-76" fill="#1B9399" sketch:type="MSShapeGroup"></path>
                <path d="M1181.61577,619.453734 L936.814857,189.237953 L852.281553,334.594288 L1098.83372,763.107396 L1181.61577,619.453734" id="Fill-77" fill="#4878AF" sketch:type="MSShapeGroup"></path>
                <path d="M985.028431,0 L1112.42384,220.693878 L1239.81773,0 L985.028431,0" id="Fill-78" fill="#0BAC88" sketch:type="MSShapeGroup"></path>
                <path d="M1436.72723,1220.8851 C1441.65118,1220.8851 1441.65118,1213.24979 1436.72723,1213.24979 C1431.80327,1213.24979 1431.80327,1220.8851 1436.72723,1220.8851" id="Fill-79" fill="#1D7FB2" sketch:type="MSShapeGroup"></path>
                <path d="M1436.72723,1220.8851 C1441.65118,1220.8851 1441.65118,1213.24979 1436.72723,1213.24979 C1431.80327,1213.24979 1431.80327,1220.8851 1436.72723,1220.8851" id="Fill-80" fill="#1D7FB2" sketch:type="MSShapeGroup"></path>
                <path d="M1872.92433,1832.47905 L2043.82616,1832.47905 L1958.23173,1684.44425 L1872.92433,1832.47905" id="Fill-82" fill="#1D7FB2" sketch:type="MSShapeGroup"></path>
                <path d="M1705.44255,1527.08827 L1665.46458,1403.36886 L1544.88943,1248.76923 L1463.26469,1391.11725 L1530.69163,1542.33139 L1623.04678,1669.8257 L1705.44255,1527.08827" id="Fill-83" fill="#15775F" sketch:type="MSShapeGroup"></path>
                <path d="M1716.93637,1832.47905 L1529.15566,1832.47905 L1623.04678,1669.8257 L1463.26469,1391.11725 L1357.5744,1574.21489 L1505.77411,1830.94893 L1344.29879,1830.94893 L1345.32786,1832.73254 L1717.08294,1832.73254 L1716.93637,1832.47905" id="Fill-84" fill="#176B65" sketch:type="MSShapeGroup"></path>
                <path d="M1625.78587,1109.57305 L1625.51257,1109.09967 L1544.88943,1248.76923 L1545.16272,1249.24261 L1705.49446,1526.99512 L1786.03974,1387.60654 L1625.78587,1109.57305" id="Fill-85" fill="#1D80B1" sketch:type="MSShapeGroup"></path>
                <path d="M2933,212.237016 L2191.87625,1493.83805 L2387.65132,1832.99519 L2933,1832.99519 L2933,212.237016" id="Fill-86" fill="#253A71" sketch:type="MSShapeGroup"></path>
            </g>
        </g>
    </g>
</svg>